<?xml version="1.0" encoding="utf-8"?>
<!-- Generator: Adobe Illustrator 22.0.1, SVG Export Plug-In . SVG Version: 6.00 Build 0)  -->
<svg version="1.1" id="PinTripIcons" xmlns="http://www.w3.org/2000/svg" xmlns:xlink="http://www.w3.org/1999/xlink" x="0px"
	 y="0px" viewBox="0 0 200 200" style="enable-background:new 0 0 200 200;" xml:space="preserve">
<style type="text/css">
	.st0{fill:#4BC6E2;}
</style>
<title>IconsArtboard 3</title>
<path id="Add-Icon" class="st0" d="M120.5,96.7h-17.2V79.5c0-1.8-1.5-3.3-3.3-3.3c-1.8,0-3.3,1.5-3.3,3.3v17.2H79.5
	c-1.8,0-3.3,1.5-3.3,3.3c0,1.8,1.5,3.3,3.3,3.3h17.2v17.2c0,1.8,1.5,3.3,3.3,3.3c1.8,0,3.3-1.5,3.3-3.3v-17.2h17.2
	c1.8,0,3.3-1.5,3.3-3.3C123.8,98.2,122.3,96.7,120.5,96.7z M100,148.6c-26.8,0-48.6-21.8-48.6-48.6S73.2,51.4,100,51.4
	s48.6,21.8,48.6,48.6C148.6,126.8,126.8,148.6,100,148.6z M100,57.2c-23.6,0-42.8,19.1-42.8,42.8s19.1,42.8,42.8,42.8
	s42.8-19.1,42.8-42.8v0C142.7,76.4,123.6,57.3,100,57.2z"/>
</svg>
