<svg id="PinTripIcons" xmlns="http://www.w3.org/2000/svg" viewBox="0 0 200 200"><defs><style>.cls-1{fill:#fff;}</style></defs><title>IconsArtboard 6</title><path id="AddBucketlist-Icon" class="cls-1" d="M137.36,88.59A5.93,5.93,0,0,1,133.84,94h0c-.69,5.73-1.37,11.38-2.06,17l-1.53,12.58q-1,8.16-2,16.34a9.47,9.47,0,0,1-7.71,8.71l-.42.18-40.36,0a11.17,11.17,0,0,1-5.24-2.68c-2.21-2.17-2.7-4.94-3-7.37q-.94-8-1.92-15.9c-.34-2.74-.67-5.49-1-8.23q-1.24-10.29-2.46-20.56a.2.2,0,0,1,0-.07,6,6,0,0,1-3.53-5.44A6.07,6.07,0,0,1,66,83,33.87,33.87,0,0,1,78.6,58.72a32.87,32.87,0,0,1,16.52-7.23l2-.26,1-.12,4,0c.73.13,1.47.24,2.2.36a50,50,0,0,1,5,1A32.6,32.6,0,0,1,123.92,61a32.94,32.94,0,0,1,9,15.62,38.78,38.78,0,0,1,.72,4c.12.78.23,1.57.37,2.35l0,.07A6.07,6.07,0,0,1,137.36,88.59ZM66,83h0a0,0,0,0,0,0,0Zm5.83-.72h3.22A24.91,24.91,0,0,1,84.19,66a24.24,24.24,0,0,1,12.2-5.34l1.46-.19.78-.09h2.92l1.62.27a37.45,37.45,0,0,1,3.69.71,24.06,24.06,0,0,1,10.81,6.28,24.32,24.32,0,0,1,6.66,11.54,29,29,0,0,1,.53,3s0,.09,0,.13h3.29A28.16,28.16,0,0,0,100,56.86h0A28.2,28.2,0,0,0,71.83,82.27ZM100,64.61h0A20.83,20.83,0,0,0,79.35,82.27h41.3A20.79,20.79,0,0,0,100,64.61Zm28,30.08H72l.32,2.71c.34,2.78.67,5.54,1,8.3L75.67,125c.19,1.51.37,3,.55,4.54.38,3.25.78,6.61,1.22,9.9.35,2.66,1.6,3.75,4.32,3.75h26.37c3.47,0,6.93,0,10.4,0a3.64,3.64,0,0,0,4-3.39c.56-4.33,1.09-8.74,1.61-13l.58-4.85L127,102.65Zm3.68-6.14A1.72,1.72,0,0,0,130,86.83H69.17a1.72,1.72,0,0,0,0,3.43H130A1.72,1.72,0,0,0,131.67,88.55Zm-22.56,27.61h-7.65v-7.65a1.46,1.46,0,1,0-2.92,0v7.65H90.89a1.46,1.46,0,0,0,0,2.92h7.65v7.65a1.46,1.46,0,1,0,2.92,0v-7.65h7.65a1.46,1.46,0,0,0,0-2.92Z"/></svg>