<?xml version="1.0" encoding="utf-8"?>
<!-- Generator: Adobe Illustrator 22.0.1, SVG Export Plug-In . SVG Version: 6.00 Build 0)  -->
<svg version="1.1" id="PinTripIcons" xmlns="http://www.w3.org/2000/svg" xmlns:xlink="http://www.w3.org/1999/xlink" x="0px"
	 y="0px" viewBox="0 0 200 200" style="enable-background:new 0 0 200 200;" xml:space="preserve">
<style type="text/css">
	.st0{fill:#4BC6E2;}
</style>
<title>IconsArtboard 2</title>
<path id="Bucketlist-Icon" class="st0" d="M114,113.6l-16.7,16.7c-1.4,1.4-3.7,1.4-5.1,0c0,0,0,0,0,0l-6.2-6.1
	c-1.4-1.5-1.3-3.8,0.2-5.1c1.4-1.3,3.5-1.3,4.9,0l3.5,3.5l14.2-14.1c1.4-1.4,3.7-1.4,5.1,0l0,0C115.4,109.9,115.4,112.2,114,113.6z
	 M142.4,87.1c0,2.7-1.6,5.1-4,6.2l0,0c-0.8,6.5-1.6,12.9-2.3,19.3l-1.7,14.3c-0.7,6.2-1.5,12.4-2.2,18.6c-0.6,5.2-3.7,8.8-8.8,9.9
	l-0.5,0.2l-45.8-0.1c-2.2-0.4-4.3-1.5-6-3c-2.5-2.5-3.1-5.7-3.4-8.5c-0.7-6-1.4-12-2.2-18l-1.1-9.3c-0.9-7.8-1.9-15.6-2.8-23.4
	c0,0,0-0.1,0-0.1c-2.4-1.1-4-3.5-4-6.2c-0.1-2.7,1.4-5.1,3.8-6.3c0.7-10.8,5.9-20.8,14.3-27.6c5.4-4.4,11.9-7.3,18.8-8.2l2.2-0.3
	l1.2-0.1h4.5c0.8,0.2,1.7,0.3,2.5,0.4c1.9,0.3,3.8,0.6,5.7,1.1c13.2,3.7,23.4,14.1,26.8,27.4c0.4,1.5,0.6,3.1,0.8,4.6
	c0.1,0.9,0.3,1.8,0.4,2.7c0,0,0,0.1,0,0.1C141,81.9,142.5,84.4,142.4,87.1L142.4,87.1z M61.4,80.7L61.4,80.7L61.4,80.7z M68,79.9
	h3.7c0.9-7.3,4.7-13.9,10.4-18.5c4-3.3,8.8-5.4,13.8-6l1.7-0.2l0.9-0.1h3.3l1.8,0.3c1.4,0.2,2.8,0.5,4.2,0.8
	c9.7,2.7,17.3,10.4,19.8,20.2c0.3,1.1,0.5,2.2,0.6,3.4c0,0,0,0.1,0,0.1h3.8c-1.6-16.4-15.5-28.9-32-28.8l0,0
	C83.5,50.9,69.6,63.4,68,79.9z M100,59.8L100,59.8c-11.7,0-21.7,8.5-23.4,20h46.9C121.7,68.3,111.7,59.8,100,59.8z M131.8,94H68.2
	l0.4,3c0.4,3.2,0.8,6.3,1.1,9.4l2.7,21.9c0.2,1.7,0.4,3.4,0.6,5.1c0.4,3.7,0.9,7.5,1.4,11.2c0.4,3,1.8,4.2,4.9,4.2h29.9
	c3.9,0,7.9,0,11.8,0c1.8,0,4.1-0.7,4.5-3.8c0.6-4.9,1.2-9.9,1.8-14.8l0.7-5.5c0.9-7.3,1.8-14.6,2.6-21.9L131.8,94z M136,87
	c0-1.1-0.9-1.9-1.9-1.9c0,0,0,0-0.1,0H65c-1.1,0-1.9,0.9-1.9,1.9c0,1.1,0.9,1.9,1.9,1.9h69C135.1,89,136,88.1,136,87
	C136,87,136,87,136,87z"/>
</svg>
