<svg id="PinTripIcons" xmlns="http://www.w3.org/2000/svg" viewBox="0 0 200 200"><defs><style>.cls-1{fill:gray;}</style></defs><title>IconsArtboard 2</title><path id="Bucketlist-Icon" class="cls-1" d="M114,113.62l-16.71,16.7a3.62,3.62,0,0,1-5.13,0L86,124.25a3.63,3.63,0,0,1,5.13-5.13l3.51,3.51,14.15-14.14a3.63,3.63,0,0,1,5.13,0h0A3.64,3.64,0,0,1,114,113.62Zm28.45-26.57a6.74,6.74,0,0,1-4,6.18h0c-.78,6.51-1.56,12.93-2.34,19.35l-1.73,14.27q-1.12,9.27-2.22,18.55c-.62,5.24-3.72,8.75-8.76,9.89l-.47.21-45.82-.05a12.65,12.65,0,0,1-6-3C68.6,150,68,146.8,67.72,144c-.71-6-1.45-12-2.18-18l-1.14-9.34Q63,105,61.61,93.31a.25.25,0,0,1,0-.08,6.74,6.74,0,0,1-4-6.17,6.89,6.89,0,0,1,3.78-6.35A38.46,38.46,0,0,1,75.71,53.14a37.19,37.19,0,0,1,18.75-8.2l2.24-.3,1.19-.14,4.49,0c.82.15,1.66.28,2.49.42A54.42,54.42,0,0,1,110.54,46a38.5,38.5,0,0,1,26.84,27.38c.38,1.52.6,3.07.82,4.57.13.89.26,1.78.42,2.67a.19.19,0,0,0,0,.08A6.91,6.91,0,0,1,142.41,87.05Zm-81-6.36h0a0,0,0,0,0,0,0ZM68,79.87h3.66A28.32,28.32,0,0,1,82.05,61.38,27.59,27.59,0,0,1,95.9,55.33l1.66-.23.88-.1,3.31,0,1.85.3a41.78,41.78,0,0,1,4.19.81,28.43,28.43,0,0,1,19.82,20.22,31.63,31.63,0,0,1,.61,3.38s0,.09,0,.14H132A32,32,0,0,0,100,51h0A32,32,0,0,0,68,79.87Zm32-20.05h0A23.65,23.65,0,0,0,76.57,79.87h46.87A23.62,23.62,0,0,0,100,59.82ZM131.78,94H68.23L68.6,97c.38,3.16.75,6.3,1.13,9.43l2.66,21.86c.21,1.71.41,3.43.61,5.15.44,3.69.89,7.51,1.39,11.25.4,3,1.82,4.25,4.9,4.25h29.94c3.93,0,7.87,0,11.8,0,1.84,0,4.11-.69,4.52-3.84.64-4.92,1.24-9.93,1.82-14.77l.67-5.5q1.32-10.94,2.65-21.86ZM136,87A1.94,1.94,0,0,0,134,85.06H65a1.94,1.94,0,0,0,0,3.88h69A1.94,1.94,0,0,0,136,87Z"/></svg>