<svg id="PinTripIcons" xmlns="http://www.w3.org/2000/svg" viewBox="0 0 200 200"><defs><style>.cls-1{fill:#fff;}</style></defs><title>IconsArtboard 7</title><path id="Camera-Icon" class="cls-1" d="M146.66,148H53.34a14,14,0,0,1-14-14V77a14,14,0,0,1,14-14h19l1.67-5.62a6.92,6.92,0,0,1,6.8-5.34h38.3A7.06,7.06,0,0,1,126,57.42l.05.19,1.52,5.4h19.13a14,14,0,0,1,14,14v56.88a14,14,0,0,1-14,14ZM53.34,67.69A9.36,9.36,0,0,0,44,77v56.88a9.36,9.36,0,0,0,9.35,9.35h93.32a9.36,9.36,0,0,0,9.35-9.35V77a9.36,9.36,0,0,0-9.35-9.35H124l-2.55-9.13a2.36,2.36,0,0,0-2.28-1.83H80.85a2.32,2.32,0,0,0-2.28,1.83l-2.7,9.13ZM100,133.82a29.67,29.67,0,1,1,29.67-29.67A29.7,29.7,0,0,1,100,133.82Zm0-54.67a25,25,0,1,0,25,25,25,25,0,0,0-25-25Zm43.64-2.79A4.32,4.32,0,1,0,148,80.68a4.32,4.32,0,0,0-4.31-4.32Zm0,0"/></svg>