<?xml version="1.0" encoding="utf-8"?>
<!-- Generator: Adobe Illustrator 22.0.1, SVG Export Plug-In . SVG Version: 6.00 Build 0)  -->
<svg version="1.1" id="PinTripIcons" xmlns="http://www.w3.org/2000/svg" xmlns:xlink="http://www.w3.org/1999/xlink" x="0px"
	 y="0px" viewBox="0 0 200 200" style="enable-background:new 0 0 200 200;" xml:space="preserve">
<style type="text/css">
	.st0{fill:#4BC6E2;}
</style>
<title>IconsArtboard 4</title>
<path id="Explore-Icon" class="st0" d="M100,63c-20.4,0-36.9,16.5-36.9,36.9s16.5,36.9,36.9,36.9c20.4,0,36.9-16.5,36.9-36.9
	C136.9,79.6,120.4,63.1,100,63z M102.4,132.1V129c0-1.3-1.1-2.4-2.4-2.4c-1.3,0-2.4,1.1-2.4,2.4v3c-15.8-1.2-28.4-13.8-29.6-29.6h3
	c1.3,0,2.4-1.1,2.4-2.4c0-1.3-1.1-2.4-2.4-2.4h-3c1.2-15.8,13.8-28.4,29.6-29.7V71c0,1.3,1.1,2.4,2.4,2.4c1.3,0,2.4-1.1,2.4-2.4
	v-3.1c15.9,1.2,28.5,13.8,29.7,29.7H129c-1.3,0-2.4,1.1-2.4,2.4c0,1.3,1.1,2.4,2.4,2.4h3.1C130.9,118.2,118.2,130.8,102.4,132.1
	L102.4,132.1z M97.5,49.6c-27.9,1.4-49.3,25-48,52.9s25,49.3,52.9,48c27.9-1.4,49.3-25,48-52.9c-1.3-26-22-46.7-48-48H97.5z
	 M100,145.4c-25.1,0-45.4-20.3-45.4-45.4c0-25.1,20.3-45.4,45.4-45.4c25.1,0,45.4,20.3,45.4,45.4c0,0,0,0,0,0
	C145.3,125,125,145.3,100,145.4z M114.9,81.9L93,91.8h-0.1l-0.1,0.1h-0.1l-0.1,0.1L92.5,92l-0.1,0.1c-0.1,0.1-0.2,0.2-0.3,0.3
	l-0.1,0.1c0,0-0.1,0.1-0.1,0.1L92,92.7v0.1l-0.1,0.1c0,0,0,0,0,0.1l-10,21.9c-0.5,1.2,0,2.6,1.2,3.2c0.3,0.1,0.7,0.2,1,0.2
	c0.3,0,0.7-0.1,1-0.2l21.9-9.9h0.1l0.1-0.1h0.1l0.1-0.1l0.1-0.1l0.1-0.1c0.1-0.1,0.2-0.2,0.3-0.3l0.1-0.1l0.1-0.1l0.1-0.1v-0.1
	l0.1-0.1l0,0l9.9-21.9c0.5-1.2,0-2.6-1.2-3.2c-0.6-0.3-1.3-0.3-2,0L114.9,81.9z M94.8,98.1l7.1,7.1l-12.9,5.9L94.8,98.1z
	 M105.2,101.8l-7.1-7.1l12.9-5.9L105.2,101.8z"/>
</svg>
