<svg id="PinTripIcons" xmlns="http://www.w3.org/2000/svg" viewBox="0 0 200 200"><defs><style>.cls-1{fill:gray;}</style></defs><title>IconsArtboard 4</title><path id="Explore-Icon" class="cls-1" d="M100,63.05A36.92,36.92,0,1,0,136.92,100,37,37,0,0,0,100,63.05Zm2.39,69v-3.08a2.39,2.39,0,0,0-4.78,0V132A32.19,32.19,0,0,1,68,102.36H71a2.39,2.39,0,0,0,0-4.78H68A32.19,32.19,0,0,1,97.61,67.92V71a2.39,2.39,0,0,0,4.78,0V67.92a32.19,32.19,0,0,1,29.66,29.66H129a2.39,2.39,0,0,0,0,4.78h3.08A32.19,32.19,0,0,1,102.39,132ZM97.47,49.61a50.49,50.49,0,1,0,4.92,0ZM100,145.36A45.39,45.39,0,1,1,145.39,100,45.44,45.44,0,0,1,100,145.36Zm14.92-63.48L93,91.83l-.05,0-.11.06-.09,0-.1.06-.11.08-.07.06a2.42,2.42,0,0,0-.32.32l-.06.07a.76.76,0,0,1-.08.11l-.06.1,0,.09-.06.11a.17.17,0,0,0,0,.05l-10,21.89a2.39,2.39,0,0,0,2.18,3.38,2.33,2.33,0,0,0,1-.22L107,108.12l.05,0,.11-.06.09,0,.1-.06.11-.08.07-.06a1.94,1.94,0,0,0,.32-.32l.06-.07.08-.11.06-.1,0-.09.06-.11,0,0,9.94-21.88a2.4,2.4,0,0,0-3.17-3.17ZM94.78,98.13l7.06,7.06L88.9,111.07Zm10.44,3.68-7.06-7.06,12.94-5.88Z"/></svg>