<?xml version="1.0" encoding="utf-8"?>
<!-- Generator: Adobe Illustrator 22.0.1, SVG Export Plug-In . SVG Version: 6.00 Build 0)  -->
<svg version="1.1" id="PinTripIcons" xmlns="http://www.w3.org/2000/svg" xmlns:xlink="http://www.w3.org/1999/xlink" x="0px"
	 y="0px" viewBox="0 0 200 200" style="enable-background:new 0 0 200 200;" xml:space="preserve">
<style type="text/css">
	.st0{fill:#4BC6E2;}
</style>
<title>IconsArtboard 1</title>
<path id="Home-Icon" class="st0" d="M155.5,93.6c-1,1.3-2.8,1.6-4.1,0.6L100,56.6L48.6,94.2c-1.3,0.9-3.1,0.7-4.1-0.6
	c-0.9-1.3-0.7-3.1,0.6-4.1l0,0l53.1-38.9c1-0.8,2.4-0.8,3.4,0l53.1,38.9C156.1,90.5,156.4,92.3,155.5,93.6
	C155.5,93.6,155.5,93.6,155.5,93.6z M140.8,94.9c-1.6,0-2.9,1.3-2.9,2.9c0,0,0,0,0,0v46.3h-23.3v-25.3c0-8-6.5-14.6-14.6-14.6
	c-8,0-14.6,6.5-14.6,14.6l0,0v25.3H62.2V97.8c-0.1-1.6-1.5-2.8-3.1-2.7c-1.5,0.1-2.7,1.3-2.7,2.7V147c0,1.6,1.2,2.9,2.8,3
	c0,0,0.1,0,0.1,0h29.1c1.5,0,2.8-1.2,2.9-2.7c0-0.1,0-0.1,0-0.2v-28.3c0-4.8,3.9-8.7,8.7-8.7c4.8,0,8.7,3.9,8.7,8.7V147
	c0,0.1,0,0.1,0,0.2c0.1,1.5,1.4,2.7,2.9,2.7h29.1c1.6,0,2.9-1.3,2.9-2.9l0,0V97.8C143.7,96.2,142.4,94.9,140.8,94.9z"/>
</svg>
