<svg id="PinTripIcons" xmlns="http://www.w3.org/2000/svg" viewBox="0 0 200 200"><defs><style>.cls-1{fill:gray;}</style></defs><title>IconsArtboard 1</title><path id="Home-Icon" class="cls-1" d="M155.47,93.58a2.92,2.92,0,0,1-4.07.63L100,56.57,48.6,94.21a2.91,2.91,0,1,1-3.44-4.7l53.12-38.9a2.91,2.91,0,0,1,3.44,0l53.12,38.9A2.91,2.91,0,0,1,155.47,93.58Zm-14.7,1.29a2.91,2.91,0,0,0-2.92,2.91v46.35H114.56v-25.3a14.56,14.56,0,1,0-29.12,0v25.3H62.15V97.78a2.92,2.92,0,0,0-5.83,0V147A2.91,2.91,0,0,0,59.23,150H88.35a2.9,2.9,0,0,0,2.9-2.69,1.48,1.48,0,0,0,0-.22V118.83a8.74,8.74,0,0,1,17.48,0V147a1.55,1.55,0,0,0,0,.22,2.91,2.91,0,0,0,2.9,2.69h29.12a2.91,2.91,0,0,0,2.91-2.91V97.78A2.91,2.91,0,0,0,140.77,94.87Z"/></svg>