<?xml version="1.0" encoding="utf-8"?>
<!-- Generator: Adobe Illustrator 22.0.1, SVG Export Plug-In . SVG Version: 6.00 Build 0)  -->
<svg version="1.1" id="Layer_1" xmlns="http://www.w3.org/2000/svg" xmlns:xlink="http://www.w3.org/1999/xlink" x="0px" y="0px"
	 viewBox="0 0 738 800" style="enable-background:new 0 0 738 800;" xml:space="preserve">
<style type="text/css">
	.st0{fill:#FFFFFF;}
	.st1{enable-background:new    ;}
	.st2{opacity:0.6;fill:none;stroke:#FFFFFF;stroke-width:9.5742;stroke-miterlimit:10;enable-background:new    ;}
</style>
<g>
	<g id="Logo">
		<path class="st0" d="M280.3,439.7c-1.3,0-2.7-0.3-4-0.8c-3.4-1.4-5.6-4.4-6.1-8.1L248,245.1c-0.1-0.8-0.1-1.6-0.1-2.4
			c-5-45.2,14.4-90.1,50.7-117.3c56.8-42.6,137.7-31,180.2,25.8l0,0c42.6,56.8,31,137.7-25.8,180.2c-15.7,11.8-33.4,19.6-52.5,23.4
			c-3.2,0.6-6.2,2-8.8,3.9l-105.3,79C284.6,439,282.5,439.7,280.3,439.7z M375.7,109.6c-24.8,0-49.8,7.7-71.1,23.7
			C271,158.5,253,200.1,257.8,242v0.4v0.4c0,0.4,0,0.7,0,1.1l22.3,185.7c0,0.1,0,0.1,0.1,0.1s0.1,0,0.2,0l105.3-79
			c3.8-2.9,8.3-4.8,12.9-5.7c17.7-3.4,34-10.7,48.5-21.6c52.4-39.3,63.1-113.9,23.8-166.4C447.6,126,411.8,109.6,375.7,109.6z"/>
		<g>
			<path class="st0" d="M377.5,165.7c-37.4,0-67.7,30.4-67.7,67.7s30.4,67.7,67.7,67.7s67.7-30.4,67.7-67.7S414.8,165.7,377.5,165.7
				z M381.9,292.2v-5.7c0-2.4-2-4.4-4.4-4.4s-4.4,2-4.4,4.4v5.7c-29-2.1-52.3-25.4-54.4-54.4h5.7c2.4,0,4.4-2,4.4-4.4
				s-2-4.4-4.4-4.4h-5.7c2.1-29,25.4-52.3,54.4-54.4v5.7c0,2.4,2,4.4,4.4,4.4s4.4-2,4.4-4.4v-5.7c29,2.1,52.3,25.4,54.4,54.4h-5.7
				c-2.4,0-4.4,2-4.4,4.4s2,4.4,4.4,4.4h5.7C434.1,266.8,410.9,290.1,381.9,292.2z"/>
			<path class="st0" d="M404.9,200.2l-40.1,18.2h-0.1c-0.1,0-0.1,0.1-0.2,0.1c-0.1,0-0.1,0.1-0.2,0.1c-0.1,0-0.1,0.1-0.2,0.1
				c-0.1,0-0.1,0.1-0.2,0.1l-0.1,0.1c-0.2,0.2-0.4,0.4-0.6,0.6l-0.1,0.1c0,0.1-0.1,0.1-0.1,0.2s-0.1,0.1-0.1,0.2s-0.1,0.1-0.1,0.2
				s-0.1,0.1-0.1,0.2v0.1l-18.2,40.1c-0.8,1.7-0.4,3.6,0.9,4.9c0.8,0.8,2,1.3,3.1,1.3c0.6,0,1.2-0.1,1.8-0.4l40.1-18.2h0.1
				c0.1,0,0.1-0.1,0.2-0.1c0.1,0,0.1-0.1,0.2-0.1c0.1,0,0.1-0.1,0.2-0.1c0.1,0,0.1-0.1,0.2-0.1l0.1-0.1c0.2-0.2,0.4-0.4,0.6-0.6
				l0.1-0.1c0-0.1,0.1-0.1,0.1-0.2s0.1-0.1,0.1-0.2s0.1-0.1,0.1-0.2s0.1-0.1,0.1-0.2v-0.1l18.2-40.1c0.8-1.7,0.4-3.6-0.9-4.9
				C408.5,199.8,406.5,199.5,404.9,200.2z M357.1,253.8l10.8-23.7l12.9,12.9L357.1,253.8z M387.1,236.8l-12.9-12.9l23.7-10.8
				L387.1,236.8z"/>
		</g>
	</g>
	<g class="st1">
		<path class="st0" d="M6.7,793.1c-2-2-2.9-4.6-2.9-8V687c0-3.2,0.9-5.8,2.8-7.5c1.8-1.8,4.4-2.7,7.6-2.7h41.3
			c12.6,0,22.5,3.2,29.5,9.5s10.6,15.2,10.6,26.6s-3.5,20.3-10.6,26.7s-16.9,9.6-29.5,9.6h-30v36.1c0,3.4-1,6-2.9,8
			c-2,2-4.6,2.9-8,2.9C11.3,796.1,8.7,795.1,6.7,793.1z M52.7,732.5C67.6,732.5,75,726,75,713s-7.4-19.5-22.3-19.5H25.4v38.9
			L52.7,732.5L52.7,732.5z"/>
		<path class="st0" d="M132.3,793c-2-2-2.9-4.6-2.9-7.9v-98.4c0-3.2,1-5.8,2.9-7.8c2-2,4.6-2.9,7.8-2.9c3.4,0,6,1,8,2.9
			c2,2,2.9,4.6,2.9,7.8v98.4c0,3.2-1,5.9-2.9,7.9c-2,2-4.6,3-8,3C136.9,796.1,134.3,795.1,132.3,793z"/>
		<path class="st0" d="M288.5,678.9c1.8,2,2.8,4.6,2.8,7.8v98.4c0,3.2-1,5.9-2.9,7.9s-4.4,3-7.4,3c-3.6,0-6.3-1.3-8.2-3.9
			l-61.2-79.7V785c0,3.2-0.9,5.9-2.7,7.9c-1.8,2-4.3,3-7.4,3s-5.6-1-7.4-3s-2.7-4.6-2.7-7.9v-98.4c0-3.2,0.9-5.8,2.9-7.8
			c1.9-2,4.4-2.9,7.5-2.9c3.5,0,6.1,1.3,8.1,3.9l61,79.3v-72.5c0-3.2,0.9-5.8,2.8-7.8c1.8-2,4.3-2.9,7.3-2.9
			C284.1,676,286.6,677,288.5,678.9z"/>
		<path class="st0" d="M362.4,793c-2-2-2.9-4.6-2.9-7.8v-90.6H329c-6.7,0-10.1-3-10.1-8.9s3.4-8.9,10.1-8.9h82.7
			c6.7,0,10.1,3,10.1,8.9s-3.4,8.9-10.1,8.9h-30.5v90.6c0,3.2-1,5.8-2.9,7.8c-2,2-4.6,2.9-7.8,2.9C367,795.9,364.4,794.9,362.4,793z
			"/>
		<path class="st0" d="M546,787.3c0,2.6-1,4.7-3.1,6.4s-4.5,2.5-7.3,2.5c-1.8,0-3.5-0.4-5.1-1.3c-1.6-0.8-3-2.1-4.1-3.8l-22.3-33.9
			c-2.2-3.6-4.6-6.1-7.1-7.5c-2.5-1.5-5.8-2.2-9.8-2.2h-16.4v37.6c0,3.4-1,6-2.9,8s-4.5,2.9-7.7,2.9s-5.8-1-7.8-2.9
			c-2-2-2.9-4.6-2.9-8V687c0-3.2,0.9-5.8,2.8-7.5c1.8-1.8,4.4-2.7,7.6-2.7h41.9c13.4,0,23.6,3,30.6,9s10.5,14.6,10.5,25.9
			c0,9.2-2.6,16.7-7.8,22.6c-5.2,5.9-12.6,9.6-22.1,11.3c3.2,0.8,6.1,2.2,8.6,4.2s4.9,4.8,7.2,8.4l15.3,23.3
			C545.3,783.5,546,785.4,546,787.3z M516.6,726.4c3.8-3.1,5.7-7.8,5.7-14.2c0-6.5-1.9-11.2-5.7-14.2s-9.8-4.4-17.9-4.4h-28.2V731
			h28.2C506.9,731,512.8,729.5,516.6,726.4z"/>
		<path class="st0" d="M583.8,793c-2-2-2.9-4.6-2.9-7.9v-98.4c0-3.2,1-5.8,2.9-7.8c2-2,4.6-2.9,7.8-2.9c3.4,0,6,1,8,2.9
			c2,2,2.9,4.6,2.9,7.8v98.4c0,3.2-1,5.9-2.9,7.9c-2,2-4.6,3-8,3C588.4,796.1,585.8,795.1,583.8,793z"/>
		<path class="st0" d="M645.9,793.1c-2-2-2.9-4.6-2.9-8V687c0-3.2,0.9-5.8,2.8-7.5c1.8-1.8,4.4-2.7,7.6-2.7h41.3
			c12.6,0,22.5,3.2,29.5,9.5s10.6,15.2,10.6,26.6s-3.5,20.3-10.6,26.7s-16.9,9.6-29.5,9.6h-30v36.1c0,3.4-1,6-2.9,8
			c-2,2-4.6,2.9-8,2.9C650.4,796.1,647.8,795.1,645.9,793.1z M691.9,732.5c14.9,0,22.3-6.5,22.3-19.5s-7.4-19.5-22.3-19.5h-27.3
			v38.9L691.9,732.5L691.9,732.5z"/>
	</g>
	<circle class="st2" cx="367.4" cy="269.7" r="266.9"/>
</g>
</svg>
