<?xml version="1.0" encoding="utf-8"?>
<!-- Generator: Adobe Illustrator 22.0.1, SVG Export Plug-In . SVG Version: 6.00 Build 0)  -->
<svg version="1.1" id="PinTripIcons" xmlns="http://www.w3.org/2000/svg" xmlns:xlink="http://www.w3.org/1999/xlink" x="0px"
	 y="0px" viewBox="0 0 200 200" style="enable-background:new 0 0 200 200;" xml:space="preserve">
<style type="text/css">
	.st0{fill:#4BC6E2;}
</style>
<title>IconsArtboard 5</title>
<path id="User-Icon" class="st0" d="M99.8,56.9c-15.1,0-27.3,12.3-27.2,27.3c0,15.1,12.3,27.3,27.3,27.2s27.3-12.3,27.2-27.3
	c0,0,0,0,0,0C127.1,69.1,114.9,56.9,99.8,56.9C99.9,56.9,99.8,56.9,99.8,56.9z M99.8,105.3c-11.7,0-21.2-9.5-21.2-21.2
	s9.5-21.2,21.2-21.2s21.2,9.5,21.2,21.2l0,0C121.1,95.8,111.6,105.3,99.8,105.3z M117.2,105.7H82.8c-19,0-34.4,15.4-34.4,34.4
	c0,1.7,1.3,3,3,3h97.1c1.7,0,3-1.3,3-3C151.5,121.1,136.1,105.7,117.2,105.7z M54.6,137.1l0.1-0.8c1.9-14.1,13.9-24.6,28.1-24.6
	h34.3c14.2,0,26.2,10.5,28.1,24.6l0.1,0.8H54.6z"/>
</svg>
