<svg id="PinTripIcons" xmlns="http://www.w3.org/2000/svg" viewBox="0 0 200 200"><defs><style>.cls-1{fill:gray;}</style></defs><title>IconsArtboard 5</title><path id="User-Icon" class="cls-1" d="M99.83,56.87A27.28,27.28,0,1,0,127.15,84.1,27.25,27.25,0,0,0,99.83,56.87Zm0,48.48A21.25,21.25,0,1,1,121.08,84.1,21.28,21.28,0,0,1,99.83,105.35Zm17.33.31H82.84A34.48,34.48,0,0,0,48.39,140.1a3,3,0,0,0,3,3h97.14a3,3,0,0,0,3-3A34.49,34.49,0,0,0,117.16,105.66ZM54.63,137.07l.1-.75a28.45,28.45,0,0,1,28.11-24.6h34.32a28.36,28.36,0,0,1,28.11,24.6l.1.75Z"/></svg>