<?xml version="1.0" encoding="UTF-8"?>
<svg width="461px" height="286px" viewBox="0 0 461 286" version="1.1" xmlns="http://www.w3.org/2000/svg" xmlns:xlink="http://www.w3.org/1999/xlink">
    <!-- Generator: Sketch 48.2 (47327) - http://www.bohemiancoding.com/sketch -->
    <title>Group 4</title>
    <desc>Created with Sketch.</desc>
    <defs>
        <linearGradient x1="50%" y1="0%" x2="50%" y2="100%" id="linearGradient-1">
            <stop stop-color="#93144E" offset="0%"></stop>
            <stop stop-color="#5C0F40" offset="100%"></stop>
        </linearGradient>
    </defs>
    <g id="Desktop" stroke="none" stroke-width="1" fill="none" fill-rule="evenodd" transform="translate(0.000000, -614.000000)">
        <g id="Group-4" transform="translate(-107.000000, 611.000000)">
            <path d="M261.645463,78.6796942 C275.702179,74.5319964 290.675297,72.2940279 306.211328,72.2940279 C380.906182,72.2940279 442.589068,124.025534 451.97498,191.009611 C462.453744,184.835638 474.668942,181.294028 487.711328,181.294028 C526.647403,181.294028 558.211328,212.857953 558.211328,251.794028 C558.211328,290.730103 526.647403,322.294028 487.711328,322.294028 C461.626168,322.294028 438.849855,308.127165 426.656701,287.067748 C400.070999,322.276314 356.035973,345.294028 306.211328,345.294028 C225.02547,345.294028 159.211328,284.180896 159.211328,208.794028 C159.211328,187.643955 164.391588,167.617374 173.638213,149.748617 C145.018245,142.467939 124.211328,120.394295 124.211328,94.2940279 C124.211328,62.2615125 155.551396,36.2940279 194.211328,36.2940279 C226.342295,36.2940279 253.417013,54.2312542 261.645465,78.6796935 Z" id="Combined-Shape" fill="#601449" opacity="0.540000021" transform="translate(341.211328, 190.794028) rotate(7.000000) translate(-341.211328, -190.794028) "></path>
            <path d="M471.014856,252.297253 C480.124094,248.256624 490.284851,246 501,246 C540.212217,246 572,276.220779 572,313.5 C572,350.779221 540.212217,381 501,381 C479.41224,381 460.074755,371.840368 447.052874,357.386028 C429.954169,372.065617 407.321487,381 382.5,381 C342.056165,381 307.423402,357.280056 293.072488,323.636143 C268.484949,342.622182 237.13958,354 203,354 C124.023281,354 60,293.110726 60,218 C60,197.379333 64.8254677,177.830545 73.4610504,160.319284 C32.0090531,155.166999 0,121.394608 0,80.5 C0,36.0410776 37.8319386,0 84.5,0 C131.168061,0 169,36.0410776 169,80.5 C169,82.3184424 168.936709,84.1228023 168.812112,85.9111894 C179.766562,83.3553937 191.216849,82 203,82 C277.042443,82 337.941587,135.51852 345.262232,204.099704 C356.720541,199.526411 369.300802,197 382.5,197 C422.110623,197 456.147144,219.752668 471.014854,252.297248 Z" id="Combined-Shape" fill="url(#linearGradient-1)"></path>
        </g>
    </g>
</svg>