<?xml version="1.0" encoding="UTF-8"?>
<svg width="520px" height="292px" viewBox="0 0 520 292" version="1.1" xmlns="http://www.w3.org/2000/svg" xmlns:xlink="http://www.w3.org/1999/xlink">
    <!-- Generator: Sketch 48.2 (47327) - http://www.bohemiancoding.com/sketch -->
    <title>Group 3</title>
    <desc>Created with Sketch.</desc>
    <defs>
        <linearGradient x1="50%" y1="0%" x2="50%" y2="100%" id="linearGradient-1">
            <stop stop-color="#A52C63" offset="0%"></stop>
            <stop stop-color="#7C1C59" offset="100%"></stop>
        </linearGradient>
        <linearGradient x1="50%" y1="0%" x2="50%" y2="100%" id="linearGradient-2">
            <stop stop-color="#91184F" offset="0%"></stop>
            <stop stop-color="#6E154D" offset="100%"></stop>
        </linearGradient>
    </defs>
    <g id="Desktop" stroke="none" stroke-width="1" fill="none" fill-rule="evenodd" transform="translate(-920.000000, -608.000000)">
        <g id="Group-3" transform="translate(892.000000, 417.000000)">
            <path d="M409.6307,448.041709 C417.356468,444.465083 425.974055,442.467596 435.061835,442.467596 C468.318678,442.467596 495.278676,469.217999 495.278676,502.216294 C495.278676,535.214589 468.318678,561.964993 435.061835,561.964993 C416.752727,561.964993 400.352132,553.857199 389.307955,541.06271 C374.806124,554.056581 355.610792,561.964993 334.559079,561.964993 C300.257671,561.964993 270.884775,540.968907 258.713413,511.188462 C237.860119,527.994257 211.275343,538.065513 182.320728,538.065513 C115.338636,538.065513 61.0389212,484.168404 61.0389212,417.68295 C61.0389212,399.430239 65.1315187,382.126318 72.4555681,366.625948 C37.2991128,362.065321 10.1514499,332.171151 10.1514499,295.972638 C10.1514499,256.619116 42.2376448,224.716783 81.817972,224.716783 C121.398299,224.716783 153.484494,256.619116 153.484494,295.972638 C153.484494,297.582262 153.430816,299.17942 153.325142,300.762439 C162.615878,298.500136 172.327148,297.300387 182.320728,297.300387 C245.117939,297.300387 296.767997,344.673157 302.976815,405.378883 C312.694888,401.33076 323.364516,399.094466 334.559079,399.094466 C368.15382,399.094466 397.021028,419.234353 409.630698,448.041705 Z" id="Combined-Shape-Copy-2" fill-opacity="0.639999986" fill="url(#linearGradient-1)" opacity="0.780000031" transform="translate(252.715063, 393.340888) rotate(294.000000) translate(-252.715063, -393.340888) "></path>
            <path d="M627.780866,398.334391 C636.890104,394.293763 647.050861,392.037138 657.76601,392.037138 C696.978227,392.037138 728.76601,422.257918 728.76601,459.537138 C728.76601,496.816359 696.978227,527.037138 657.76601,527.037138 C636.17825,527.037138 616.840765,517.877506 603.818884,503.423166 C586.720179,518.102755 564.087497,527.037138 539.26601,527.037138 C498.822175,527.037138 464.189412,503.317195 449.838498,469.673281 C425.250959,488.659321 393.90559,500.037138 359.76601,500.037138 C280.789291,500.037138 216.76601,439.147864 216.76601,364.037138 C216.76601,343.416472 221.591478,323.867683 230.22706,306.356423 C188.775063,301.204138 156.76601,267.431746 156.76601,226.537138 C156.76601,182.078216 194.597949,146.037138 241.26601,146.037138 C287.934071,146.037138 325.76601,182.078216 325.76601,226.537138 C325.76601,228.355581 325.702719,230.159941 325.578122,231.948328 C336.532572,229.392532 347.982859,228.037138 359.76601,228.037138 C433.808453,228.037138 494.707597,281.555659 502.028242,350.136843 C513.486551,345.56355 526.066812,343.037138 539.26601,343.037138 C578.876633,343.037138 612.913154,365.789807 627.780864,398.334386 Z" id="Combined-Shape-Copy" fill="url(#linearGradient-2)" transform="translate(442.766010, 336.537138) rotate(292.000000) translate(-442.766010, -336.537138) "></path>
        </g>
    </g>
</svg>