<?xml version="1.0" encoding="iso-8859-1"?>
<!-- Generator: Adobe Illustrator 19.0.0, SVG Export Plug-In . SVG Version: 6.00 Build 0)  -->
<svg version="1.1" id="Capa_1" xmlns="http://www.w3.org/2000/svg" xmlns:xlink="http://www.w3.org/1999/xlink" x="0px" y="0px"
	 viewBox="0 0 512 512" style="enable-background:new 0 0 512 512;" xml:space="preserve">
<path style="fill:#FFB751;" d="M258.7,7.52v496.96c136-1.44,245.8-112.14,245.8-248.48S394.7,8.96,258.7,7.52z"/>
<path style="fill:#FFD764;" d="M258.7,7.52c-0.9-0.01-1.8-0.02-2.7-0.02C118.76,7.5,7.5,118.76,7.5,256S118.76,504.5,256,504.5
	c0.9,0,1.8-0.01,2.7-0.02C372.6,502.76,464.5,392.17,464.5,256S372.6,9.24,258.7,7.52z"/>
<path style="fill:#401510;" d="M369.5,226.2h-15l-97.23,124.25h99.89c17.13-21.83,27.34-49.35,27.34-79.25v-30
	C384.5,232.95,377.75,226.2,369.5,226.2z"/>
<path style="fill:#901C0F;" d="M142.5,226.2c-8.25,0-15,6.75-15,15v30c0,29.9,10.21,57.42,27.34,79.25l187.05-16.32
	c8.03-18.6,12.61-40.07,12.61-62.93v-45L142.5,226.2L142.5,226.2z"/>
<path style="fill:#E0230D;" d="M341.89,334.13l-84.62,65.56c40.55-0.39,76.6-19.56,99.89-49.24
	C352.55,344.58,347.44,339.11,341.89,334.13z"/>
<path style="fill:#FF5440;" d="M341.89,334.13c-16.68,38.69-48.28,64.96-84.62,65.56c-0.42,0.01-0.85,0.01-1.27,0.01
	c-41.07,0-77.63-19.26-101.16-49.25c23.53-29.98,60.09-49.25,101.16-49.25C289.02,301.2,319.13,313.66,341.89,334.13z"/>
<path style="fill:#FFE7A3;" d="M324.5,226.2l-15,45h30c8.25,0,15-6.75,15-15v-30L324.5,226.2L324.5,226.2z"/>
<path style="fill:#FFFFFF;" d="M324.5,226.2v30c0,8.25-6.75,15-15,15h-137c-8.25,0-15-6.75-15-15v-30L324.5,226.2L324.5,226.2z"/>
<g>
	<circle style="fill:#FF804C;" cx="72.5" cy="250.8" r="25"/>
	<circle style="fill:#FF804C;" cx="439.5" cy="251.2" r="25"/>
</g>
<path d="M471.635,245.944c-0.614-4.097-4.442-6.917-8.528-6.306c-4.097,0.614-6.92,4.432-6.306,8.528
	c0.127,0.849,0.194,1.693,0.199,2.513c0.032,4.674-1.759,9.081-5.041,12.409c-3.283,3.328-7.665,5.178-12.34,5.209
	c-0.04,0-0.079,0-0.12,0c-9.594,0-17.433-7.773-17.498-17.381c-0.065-9.649,7.732-17.553,17.381-17.618
	c0.799-0.018,1.622,0.048,2.454,0.159c4.115,0.546,7.878-2.34,8.423-6.446c0.546-4.106-2.341-7.877-6.446-8.423
	c-1.519-0.202-3.036-0.3-4.531-0.29c-17.92,0.121-32.4,14.799-32.28,32.719c0.121,17.846,14.678,32.28,32.496,32.28
	c0.075,0,0.149,0,0.224,0c8.681-0.059,16.819-3.495,22.916-9.674c6.097-6.18,9.422-14.364,9.363-23.042
	C471.99,249.054,471.867,247.494,471.635,245.944z"/>
<path d="M437.02,74.98C388.668,26.628,324.38,0,256,0S123.333,26.628,74.98,74.98S0,187.62,0,256s26.628,132.667,74.98,181.02
	S187.62,512,256,512s132.668-26.628,181.02-74.98S512,324.38,512,256S485.371,123.333,437.02,74.98z M256,497
	C123.112,497,15,388.888,15,256S123.112,15,256,15s241,108.112,241,241S388.888,497,256,497z"/>
<path d="M369.5,218.703h-227c-12.407,0-22.5,10.093-22.5,22.5v30c0,31.247,10.599,60.061,28.382,83.051
	c0.34,0.578,0.755,1.119,1.257,1.601c24.939,31.27,63.347,51.348,106.361,51.348c43.01,0,81.415-20.074,106.354-51.339
	c0.511-0.489,0.934-1.039,1.277-1.627C381.406,331.249,392,302.442,392,271.203v-30C392,228.796,381.906,218.703,369.5,218.703z
	 M165,233.703h182v22.5c0,4.136-3.364,7.5-7.5,7.5h-167c-4.136,0-7.5-3.364-7.5-7.5V233.703z M256,392.203
	c-36.454,0-69.194-16.205-91.396-41.788c23.035-26.58,56.007-41.712,91.396-41.712s68.362,15.131,91.397,41.711
	C325.194,375.998,292.454,392.203,256,392.203z M377,271.203c0,24.787-7.497,47.854-20.335,67.061
	c-25.773-28.432-61.929-44.561-100.665-44.561s-74.892,16.13-100.665,44.561C142.497,319.056,135,295.99,135,271.203v-30
	c0-4.136,3.364-7.5,7.5-7.5h7.5v22.5c0,12.407,10.093,22.5,22.5,22.5h167c12.406,0,22.5-10.093,22.5-22.5v-22.5h7.5
	c4.136,0,7.5,3.364,7.5,7.5V271.203z"/>
<path d="M127.5,188.703c4.142,0,7.5-3.358,7.5-7.5c0-12.407,10.093-22.5,22.5-22.5s22.5,10.093,22.5,22.5c0,4.142,3.358,7.5,7.5,7.5
	s7.5-3.358,7.5-7.5c0-20.678-16.822-37.5-37.5-37.5s-37.5,16.822-37.5,37.5C120,185.345,123.358,188.703,127.5,188.703z"/>
<path d="M354.5,143.703c-20.678,0-37.5,16.822-37.5,37.5c0,4.142,3.357,7.5,7.5,7.5s7.5-3.358,7.5-7.5
	c0-12.407,10.094-22.5,22.5-22.5s22.5,10.093,22.5,22.5c0,4.142,3.357,7.5,7.5,7.5s7.5-3.358,7.5-7.5
	C392,160.525,375.178,143.703,354.5,143.703z"/>
<path d="M263.5,422.203h-15c-4.142,0-7.5,3.358-7.5,7.5s3.358,7.5,7.5,7.5h15c4.143,0,7.5-3.358,7.5-7.5
	S267.643,422.203,263.5,422.203z"/>
<path d="M96.101,239.639c-4.096,0.615-6.917,4.435-6.302,8.531c0.127,0.846,0.194,1.689,0.199,2.509
	c0.032,4.674-1.759,9.081-5.042,12.409s-7.666,5.178-12.34,5.209c-9.631,0.03-17.552-7.732-17.617-17.381s7.732-17.553,17.38-17.618
	c0.808-0.002,1.622,0.048,2.454,0.159c4.108,0.543,7.876-2.341,8.423-6.446c0.546-4.106-2.34-7.877-6.446-8.423
	c-1.518-0.201-3.028-0.292-4.531-0.29c-17.92,0.121-32.401,14.799-32.28,32.719c0.059,8.681,3.495,16.819,9.674,22.916
	c6.126,6.044,14.222,9.364,22.819,9.364c0.075,0,0.151,0,0.226,0c8.681-0.059,16.819-3.495,22.916-9.674s9.422-14.364,9.364-23.042
	c-0.01-1.528-0.133-3.089-0.366-4.64C104.017,241.844,100.2,239.019,96.101,239.639z"/>
<g>
</g>
<g>
</g>
<g>
</g>
<g>
</g>
<g>
</g>
<g>
</g>
<g>
</g>
<g>
</g>
<g>
</g>
<g>
</g>
<g>
</g>
<g>
</g>
<g>
</g>
<g>
</g>
<g>
</g>
</svg>
