<?xml version="1.0" encoding="iso-8859-1"?>
<!-- Generator: Adobe Illustrator 19.0.0, SVG Export Plug-In . SVG Version: 6.00 Build 0)  -->
<svg version="1.1" id="Capa_1" xmlns="http://www.w3.org/2000/svg" xmlns:xlink="http://www.w3.org/1999/xlink" x="0px" y="0px"
	 viewBox="0 0 512 512" style="enable-background:new 0 0 512 512;" xml:space="preserve">
<path style="fill:#FFB751;" d="M258.7,504.48V7.52C394.7,8.96,504.5,119.66,504.5,256S394.7,503.04,258.7,504.48z"/>
<path style="fill:#FFD764;" d="M258.7,504.48c-0.9,0.01-1.8,0.02-2.7,0.02C118.76,504.5,7.5,393.24,7.5,256S118.76,7.5,256,7.5
	c0.9,0,1.8,0.01,2.7,0.02C372.6,9.24,464.5,119.83,464.5,256S372.6,502.76,258.7,504.48z"/>
<path style="fill:#DEF1FF;" d="M157.5,173.7v105c28.99,0,52.5-23.5,52.5-52.5C210,197.21,186.49,173.7,157.5,173.7z"/>
<path style="fill:#FFFFFF;" d="M157.5,173.7c12.43,0,22.5,23.51,22.5,52.5c0,29-10.07,52.5-22.5,52.5c-28.99,0-52.5-23.5-52.5-52.5
	C105,197.21,128.51,173.7,157.5,173.7z"/>
<path style="fill:#0E2739;" d="M157.503,241.203c8.271,0,15-6.729,15-15s-6.729-15-15-15s-15,6.729-15,15
	S149.232,241.203,157.503,241.203z"/>
<path style="fill:#DEF1FF;" d="M354.5,173.7v105c28.99,0,52.5-23.5,52.5-52.5C407,197.21,383.49,173.7,354.5,173.7z"/>
<path style="fill:#FFFFFF;" d="M354.5,173.7c12.43,0,22.5,23.51,22.5,52.5c0,29-10.07,52.5-22.5,52.5c-28.99,0-52.5-23.5-52.5-52.5
	C302,197.21,325.51,173.7,354.5,173.7z"/>
<path style="fill:#0E2739;" d="M354.503,241.203c8.271,0,15-6.729,15-15s-6.729-15-15-15s-15,6.729-15,15
	S346.232,241.203,354.503,241.203z"/>
<path d="M437.02,74.98C388.667,26.629,324.38,0,256,0S123.333,26.629,74.98,74.98S0,187.62,0,256s26.628,132.668,74.98,181.02
	S187.62,512,256,512s132.667-26.629,181.02-74.98S512,324.38,512,256S485.372,123.332,437.02,74.98z M256,497
	C123.112,497,15,388.888,15,256S123.112,15,256,15s241,108.112,241,241S388.888,497,256,497z"/>
<path d="M156.985,151.01c1.878,0.129,3.75,0.193,5.615,0.193c10.531,0,20.829-2.058,30.683-6.14
	c11.598-4.804,21.648-12.024,29.871-21.462c2.721-3.122,2.396-7.86-0.727-10.581c-3.124-2.721-7.861-2.397-10.582,0.728
	c-6.688,7.675-14.864,13.548-24.303,17.458c-9.439,3.909-19.371,5.542-29.528,4.839c-4.132-0.279-7.713,2.835-7.997,6.968
	C149.733,147.145,152.853,150.726,156.985,151.01z"/>
<path d="M318.72,145.063c9.855,4.082,20.15,6.14,30.682,6.14c1.865,0,3.738-0.064,5.616-0.193c4.132-0.284,7.252-3.865,6.968-7.997
	s-3.865-7.239-7.997-6.968c-10.159,0.7-20.089-0.93-29.528-4.839c-9.438-3.909-17.614-9.783-24.303-17.459
	c-2.721-3.122-7.459-3.447-10.582-0.727c-3.123,2.722-3.448,7.459-0.727,10.582C297.073,133.04,307.123,140.261,318.72,145.063z"/>
<path d="M256.001,304.839c-40.324,0-78.324,17.737-104.256,48.664c-2.661,3.175-2.246,7.905,0.928,10.566
	c1.405,1.178,3.115,1.753,4.815,1.753c2.141,0,4.268-0.912,5.751-2.681c23.075-27.52,56.886-43.303,92.762-43.303
	c35.874,0,69.684,15.782,92.76,43.299c2.662,3.173,7.392,3.589,10.566,0.928c3.174-2.662,3.589-7.393,0.927-10.566
	C334.321,322.575,296.323,304.839,256.001,304.839z"/>
<path d="M263.5,334.839h-15c-4.142,0-7.5,3.357-7.5,7.5s3.358,7.5,7.5,7.5h15c4.142,0,7.5-3.357,7.5-7.5
	S267.642,334.839,263.5,334.839z"/>
<path d="M180.003,226.203c0-12.406-10.093-22.5-22.5-22.5s-22.5,10.094-22.5,22.5s10.093,22.5,22.5,22.5
	S180.003,238.609,180.003,226.203z M150.003,226.203c0-4.136,3.364-7.5,7.5-7.5s7.5,3.364,7.5,7.5s-3.364,7.5-7.5,7.5
	S150.003,230.339,150.003,226.203z"/>
<path d="M217.5,226.203c0-33.084-26.916-60-60-60s-60,26.916-60,60s26.916,60,60,60S217.5,259.287,217.5,226.203z M112.5,226.203
	c0-24.813,20.187-45,45-45s45,20.187,45,45s-20.187,45-45,45S112.5,251.017,112.5,226.203z"/>
<path d="M354.497,203.703c-12.407,0-22.5,10.094-22.5,22.5s10.093,22.5,22.5,22.5s22.5-10.094,22.5-22.5
	S366.904,203.703,354.497,203.703z M354.497,233.703c-4.136,0-7.5-3.364-7.5-7.5s3.364-7.5,7.5-7.5s7.5,3.364,7.5,7.5
	S358.633,233.703,354.497,233.703z"/>
<path d="M354.5,166.203c-33.084,0-60,26.916-60,60s26.916,60,60,60s60-26.916,60-60S387.584,166.203,354.5,166.203z M354.5,271.203
	c-24.813,0-45-20.187-45-45s20.187-45,45-45s45,20.187,45,45S379.313,271.203,354.5,271.203z"/>
<g>
</g>
<g>
</g>
<g>
</g>
<g>
</g>
<g>
</g>
<g>
</g>
<g>
</g>
<g>
</g>
<g>
</g>
<g>
</g>
<g>
</g>
<g>
</g>
<g>
</g>
<g>
</g>
<g>
</g>
</svg>
